Coordinates
version=1
nRows=6
nColumns=46
inDegrees=yes

Units are S.I. units (second, meters, Newtons, ...)
Angles are in degrees.

endheader
time	pelvis_tilt	pelvis_list	pelvis_rotation	pelvis_tx	pelvis_ty	pelvis_tz	bb_angle	bb_tx	bb_ty	bb_tz	hip_flexion_r	hip_adduction_r	hip_rotation_r	knee_angle_r	knee_angle_r_beta	ankle_angle_r	subtalar_angle_r	mtp_angle_r	crank_angle_r	hip_flexion_l	hip_adduction_l	hip_rotation_l	knee_angle_l	knee_angle_l_beta	ankle_angle_l	subtalar_angle_l	mtp_angle_l	crank_angle_l	lumbar_extension	lumbar_bending	lumbar_rotation	arm_flex_r	arm_add_r	arm_rot_r	elbow_flex_r	pro_sup_r	wrist_flex_r	wrist_dev_r	arm_flex_l	arm_add_l	arm_rot_l	elbow_flex_l	pro_sup_l	wrist_flex_l	wrist_dev_l
      5.00500000	    -30.46745605	      1.25732193	      4.06369381	      0.36194950	      1.17176508	     -0.23932139	      0.00000000	      0.50000000	      0.00000000	      0.25000000	     51.89605407	     -4.14887223	      2.45141513	     79.67119156	      1.39052461	    -14.67458822	    -11.78165650	      0.00000000	      0.00000000	     56.06458185	     -1.36762534	      1.70763607	     47.73829586	      0.83319044	     -8.77347820	    -13.75635863	      0.00000000	      0.00000000	    -56.95435468	     -6.10719022	      1.23982682	     27.51426105	    -32.07956961	      3.77693557	     93.56320942	     50.52023047	      0.00000000	      0.00000000	     42.91935414	    -27.86302962	     23.09782040	     98.09913358	     52.65115351	      0.00000000	      0.00000000
      5.01000000	    -30.08895035	      0.71859200	      3.55233758	      0.36240868	      1.17104175	     -0.23968821	      0.00000000	      0.50000000	      0.00000000	      0.25000000	     52.91991397	     -3.43623636	      2.51312889	     82.10329119	      1.43297276	    -14.05222349	    -11.29089385	      0.00000000	      0.00000000	     54.19865838	     -1.97961354	      1.86416831	     45.24916501	      0.78974691	    -10.70216830	    -14.60890469	      0.00000000	      0.00000000	    -56.96430377	     -5.84708711	      1.78178234	     28.00444640	    -32.24595925	      4.46205896	     93.04059314	     50.51121578	      0.00000000	      0.00000000	     42.12979379	    -27.34547194	     22.05944180	     98.01018481	     52.51751887	      0.00000000	      0.00000000
      5.01500000	    -29.82191265	     -0.15928151	      3.04599037	      0.36285835	      1.16989576	     -0.23978895	      0.00000000	      0.50000000	      0.00000000	      0.25000000	     54.07363596	     -2.42189657	      2.24798840	     84.43075071	      1.47359459	    -13.67700450	    -11.37358646	      0.00000000	      0.00000000	     52.53617331	     -2.95716521	      2.20231050	     42.95707646	      0.74974242	    -11.73107452	    -14.15613432	      0.00000000	      0.00000000	    -56.79315188	     -5.38854400	      2.66502753	     28.20668999	    -32.24090202	      4.63738044	     92.96534957	     50.51114339	      0.00000000	      0.00000000	     41.58088881	    -27.36820329	     21.91932456	     97.92503463	     52.48707580	      0.00000000	      0.00000000
      5.02000000	    -29.37057923	     -0.77667246	      2.28403027	      0.36361489	      1.16910281	     -0.23973142	      0.00000000	      0.50000000	      0.00000000	      0.25000000	     55.09198597	     -1.44523264	      2.27922618	     86.67322586	      1.51273316	    -13.45102277	    -11.11602929	      0.00000000	      0.00000000	     50.51728990	     -3.96808636	      2.00285459	     40.54284093	      0.70760606	    -13.37078697	    -14.41405358	      0.00000000	      0.00000000	    -56.86370289	     -5.24578876	      3.55188508	     28.44299235	    -32.51256888	      5.14067270	     92.72944495	     50.52273247	      0.00000000	      0.00000000	     40.85785945	    -26.94454799	     21.32236022	     97.70681989	     52.38572285	      0.00000000	      0.00000000
      5.02500000	    -29.08570082	     -1.50963564	      1.69254311	      0.36416621	      1.16777200	     -0.23993275	      0.00000000	      0.50000000	      0.00000000	      0.25000000	     56.33074836	     -0.58992263	      2.01922808	     88.90163865	      1.55162630	    -13.23526906	    -11.07558767	      0.00000000	      0.00000000	     48.74583700	     -4.95257595	      1.97587582	     38.29144893	      0.66831186	    -14.51143368	    -14.03256368	      0.00000000	      0.00000000	    -56.67900873	     -4.87840087	      4.45112823	     28.61375934	    -32.67301984	      5.46266444	     92.64850150	     50.53604020	      0.00000000	      0.00000000	     40.27326969	    -26.78696135	     21.01496251	     97.52360127	     52.32012014	      0.00000000	      0.00000000
      5.03000000	    -28.63827436	     -1.94889414	      0.87482345	      0.36490606	      1.16675942	     -0.23994420	      0.00000000	      0.50000000	      0.00000000	      0.25000000	     57.46663113	      0.18722259	      2.05351189	     91.07808389	      1.58961244	    -13.17553387	    -10.90344022	      0.00000000	      0.00000000	     46.59641795	     -5.85443272	      1.52047888	     35.86802586	      0.62601515	    -15.99065325	    -14.29409262	      0.00000000	      0.00000000	    -56.69324431	     -4.87784278	      5.26532097	     28.92932806	    -33.37960684	      6.62346056	     92.44473996	     50.62393168	      0.00000000	      0.00000000	     39.57304561	    -25.91454875	     19.82297087	     97.02804995	     52.10580299	      0.00000000	      0.00000000
